# xmcd CD database file
#
# Track frame offsets:
#	150
#	12278
#	27332
#	39277
#	54530
#	65969
#	89940
#	105359
#	121750
#	144118
#	156387
#	171537
#	192236
#
# Disc length: 2827 seconds
#
# Revision: 0
# Processed by: cddbd v1.4PL0 Copyright (c) Steve Scherf et al.
# Submitted via: CDex 1.40Release
#
DISCID=b30b090d
DTITLE=Dan Klarskov and The Honeydrippers - The Blues is a Feeling
DYEAR=2001
DGENRE=Blues
TTITLE0=What is wrong with you
TTITLE1=lonesome woman blues
TTITLE2=I wont be here long
TTITLE3=being with you
TTITLE4=midnight express
TTITLE5=cancer blues
TTITLE6=undecided blues
TTITLE7=whoo wee baby
TTITLE8=bad blood mama
TTITLE9=the blues is a feeling
TTITLE10=come and get it
TTITLE11=take you hat and leave
TTITLE12=two sons
EXTD=YEAR: 2001 ID3G: 0
EXTT0=
EXTT1=
EXTT2=
EXTT3=
EXTT4=
EXTT5=
EXTT6=
EXTT7=
EXTT8=
EXTT9=
EXTT10=
EXTT11=
EXTT12=
PLAYORDER=
